# xmcd
#
# Track frame offsets:
#	150
#	13687
#	28407
#	41745
#	54225
#	68990
#	84720
#	98362
#	113455
#	128035
#	140985
#	155252
#	168000
#	181995
#
# Disc length: 2616
#
# Revision: 1
# Processed by: cddbd v1.5.1PL0 Copyright (c) Steve Scherf et al.
# Submitted via: VisiTrax 2.9.5.180 - For more info visit www.synapsa.com
# Normalized: r0:DSETVAR1
#
DISCID=b10a360e
DTITLE=Various Artist - Mr Music Country
DYEAR=1993
DGENRE=Country
TTITLE0=Vern Gosdin - Rough Around The Edges
TTITLE1=Debra Burns - I'm In Love All Over
TTITLE2=Martin Delray - The Wound
TTITLE3=Branson Brothers - I make The Livin' (She makes The Livin' Worthwhile)
TTITLE4=Tim Mensy - This Ol' Heart
TTITLE5=Emmylou Harris with Flaco Jimenez - West Texas Waltz
TTITLE6=Hank Williams Jr. - Come Over To The Country
TTITLE7=Dwight Yoakam - Turn It On, Turn It Up, Turn Me loose
TTITLE8=Judy Fields - I Got On This Train To Ride
TTITLE9=John Michael Montgomery - Nickles And Dimes And Love
TTITLE10=Randy Travis - There'll Always Be A honkytonk Somewhere
TTITLE11=Nanci Griffith with Guy Clark - Do Re Mi
TTITLE12=Michael White - If I Had A Mind To
TTITLE13=The Jumas - Poison sugar
EXTD=
EXTT0=
EXTT1=
EXTT2=
EXTT3=
EXTT4=
EXTT5=
EXTT6=
EXTT7=
EXTT8=
EXTT9=
EXTT10=
EXTT11=
EXTT12=
EXTT13=
PLAYORDER=
